  <svg xmlns="http://www.w3.org/2000/svg" style="display: none">
  <symbol id="arrow-svg" viewBox="0 0 512 376.83">
    <path
      fill-rule="nonzero"
      d="M355.12 372.7a12.026 12.026 0 0 1-17.09 1.06c-5-4.47-5.46-12.2-1.04-17.25l136.05-155.82H12.15c-6.71 0-12.15-5.5-12.15-12.28 0-6.77 5.44-12.27 12.15-12.27h460.9L336.99 20.32c-4.42-5.05-3.96-12.78 1.04-17.25 5.01-4.47 12.66-4 17.09 1.05l153.67 176c4.17 4.55 4.33 11.64.17 16.39L355.12 372.7z"
    />
  </symbol>
  <symbol id="mail-svg" viewBox="0 0 512 512">
    <path
      d="M502.3 190.8c3.9-3.1 9.7-.2 9.7 4.7V400c0 26.5-21.5 48-48 48H48c-26.5 0-48-21.5-48-48V195.6c0-5 5.7-7.8 9.7-4.7 22.4 17.4 52.1 39.5 154.1 113.6 21.1 15.4 56.7 47.8 92.2 47.6 35.7.3 72-32.8 92.3-47.6 102-74.1 131.6-96.3 154-113.7zM256 320c23.2.4 56.6-29.2 73.4-41.4 132.7-96.3 142.8-104.7 173.4-128.7 5.8-4.5 9.2-11.5 9.2-18.9v-19c0-26.5-21.5-48-48-48H48C21.5 64 0 85.5 0 112v19c0 7.4 3.4 14.3 9.2 18.9 30.6 23.9 40.7 32.4 173.4 128.7 16.8 12.2 50.2 41.8 73.4 41.4z"
    ></path>
  </symbol>
  <symbol id="phone-svg" viewBox="0 0 512 512">
    <path
      d="M493.4 24.6l-104-24c-11.3-2.6-22.9 3.3-27.5 13.9l-48 112c-4.2 9.8-1.4 21.3 6.9 28l60.6 49.6c-36 76.7-98.9 140.5-177.2 177.2l-49.6-60.6c-6.8-8.3-18.2-11.1-28-6.9l-112 48C3.9 366.5-2 378.1.6 389.4l24 104C27.1 504.2 36.7 512 48 512c256.1 0 464-207.5 464-464 0-11.2-7.7-20.9-18.6-23.4z"
    ></path>
  </symbol>
  <symbol id="linkedin-svg" viewBox="0 0 448 512">
    <path
      d="M100.28 448H7.4V148.9h92.88zM53.79 108.1C24.09 108.1 0 83.5 0 53.8a53.79 53.79 0 0 1 107.58 0c0 29.7-24.1 54.3-53.79 54.3zM447.9 448h-92.68V302.4c0-34.7-.7-79.2-48.29-79.2-48.29 0-55.69 37.7-55.69 76.7V448h-92.78V148.9h89.08v40.8h1.3c12.4-23.5 42.69-48.3 87.88-48.3 94 0 111.28 61.9 111.28 142.3V448z"
    />
  </symbol>
  <symbol id="github-svg" viewBox="0 0 496 512">
    <path
      d="M165.9 397.4c0 2-2.3 3.6-5.2 3.6-3.3.3-5.6-1.3-5.6-3.6 0-2 2.3-3.6 5.2-3.6 3-.3 5.6 1.3 5.6 3.6zm-31.1-4.5c-.7 2 1.3 4.3 4.3 4.9 2.6 1 5.6 0 6.2-2s-1.3-4.3-4.3-5.2c-2.6-.7-5.5.3-6.2 2.3zm44.2-1.7c-2.9.7-4.9 2.6-4.6 4.9.3 2 2.9 3.3 5.9 2.6 2.9-.7 4.9-2.6 4.6-4.6-.3-1.9-3-3.2-5.9-2.9zM244.8 8C106.1 8 0 113.3 0 252c0 110.9 69.8 205.8 169.5 239.2 12.8 2.3 17.3-5.6 17.3-12.1 0-6.2-.3-40.4-.3-61.4 0 0-70 15-84.7-29.8 0 0-11.4-29.1-27.8-36.6 0 0-22.9-15.7 1.6-15.4 0 0 24.9 2 38.6 25.8 21.9 38.6 58.6 27.5 72.9 20.9 2.3-16 8.8-27.1 16-33.7-55.9-6.2-112.3-14.3-112.3-110.5 0-27.5 7.6-41.3 23.6-58.9-2.6-6.5-11.1-33.3 2.6-67.9 20.9-6.5 69 27 69 27 20-5.6 41.5-8.5 62.8-8.5s42.8 2.9 62.8 8.5c0 0 48.1-33.6 69-27 13.7 34.7 5.2 61.4 2.6 67.9 16 17.7 25.8 31.5 25.8 58.9 0 96.5-58.9 104.2-114.8 110.5 9.2 7.9 17 22.9 17 46.4 0 33.7-.3 75.4-.3 83.6 0 6.5 4.6 14.4 17.3 12.1C428.2 457.8 496 362.9 496 252 496 113.3 383.5 8 244.8 8zM97.2 352.9c-1.3 1-1 3.3.7 5.2 1.6 1.6 3.9 2.3 5.2 1 1.3-1 1-3.3-.7-5.2-1.6-1.6-3.9-2.3-5.2-1zm-10.8-8.1c-.7 1.3.3 2.9 2.3 3.9 1.6 1 3.6.7 4.3-.7.7-1.3-.3-2.9-2.3-3.9-2-.6-3.6-.3-4.3.7zm32.4 35.6c-1.6 1.3-1 4.3 1.3 6.2 2.3 2.3 5.2 2.6 6.5 1 1.3-1.3.7-4.3-1.3-6.2-2.2-2.3-5.2-2.6-6.5-1zm-11.4-14.7c-1.6 1-1.6 3.6 0 5.9 1.6 2.3 4.3 3.3 5.6 2.3 1.6-1.3 1.6-3.9 0-6.2-1.4-2.3-4-3.3-5.6-2z"
    />
  </symbol>
  <symbol id="instagram-svg" viewBox="0 0 448 512">
    <path
      d="M224.1 141c-63.6 0-114.9 51.3-114.9 114.9s51.3 114.9 114.9 114.9S339 319.5 339 255.9 287.7 141 224.1 141zm0 189.6c-41.1 0-74.7-33.5-74.7-74.7s33.5-74.7 74.7-74.7 74.7 33.5 74.7 74.7-33.6 74.7-74.7 74.7zm146.4-194.3c0 14.9-12 26.8-26.8 26.8-14.9 0-26.8-12-26.8-26.8s12-26.8 26.8-26.8 26.8 12 26.8 26.8zm76.1 27.2c-1.7-35.9-9.9-67.7-36.2-93.9-26.2-26.2-58-34.4-93.9-36.2-37-2.1-147.9-2.1-184.9 0-35.8 1.7-67.6 9.9-93.9 36.1s-34.4 58-36.2 93.9c-2.1 37-2.1 147.9 0 184.9 1.7 35.9 9.9 67.7 36.2 93.9s58 34.4 93.9 36.2c37 2.1 147.9 2.1 184.9 0 35.9-1.7 67.7-9.9 93.9-36.2 26.2-26.2 34.4-58 36.2-93.9 2.1-37 2.1-147.8 0-184.8zM398.8 388c-7.8 19.6-22.9 34.7-42.6 42.6-29.5 11.7-99.5 9-132.1 9s-102.7 2.6-132.1-9c-19.6-7.8-34.7-22.9-42.6-42.6-11.7-29.5-9-99.5-9-132.1s-2.6-102.7 9-132.1c7.8-19.6 22.9-34.7 42.6-42.6 29.5-11.7 99.5-9 132.1-9s102.7-2.6 132.1 9c19.6 7.8 34.7 22.9 42.6 42.6 11.7 29.5 9 99.5 9 132.1s2.7 102.7-9 132.1z"
    />
  </symbol>
  <symbol id="react-svg" viewBox="0 0 122.88 109.43">
    <path
      d="M122.88,54.73c0-8.14-10.19-15.85-25.82-20.64c3.61-15.93,2-28.6-5.06-32.66c-1.63-0.95-3.53-1.4-5.61-1.4 v5.59c1.15,0,2.08,0.23,2.86,0.65c3.41,1.95,4.88,9.39,3.73,18.96c-0.28,2.35-0.73,4.83-1.28,7.36c-4.91-1.2-10.27-2.13-15.9-2.73 c-3.38-4.63-6.89-8.84-10.42-12.52C73.54,9.74,81.2,5.59,86.41,5.59V0l0,0c-6.89,0-15.9,4.91-25.02,13.43 C52.27,4.96,43.26,0.1,36.37,0.1v5.59c5.18,0,12.87,4.13,21.04,11.67c-3.51,3.68-7.01,7.86-10.34,12.5 c-5.66,0.6-11.02,1.53-15.93,2.75c-0.58-2.5-1-4.93-1.3-7.26c-1.18-9.57,0.28-17.01,3.66-18.99c0.75-0.45,1.73-0.65,2.88-0.65V0.13 l0,0c-2.1,0-4.01,0.45-5.66,1.4c-7.04,4.06-8.62,16.71-4.98,32.59C10.14,38.92,0,46.61,0,54.73c0,8.14,10.19,15.85,25.82,20.64 c-3.61,15.93-2,28.6,5.06,32.66c1.63,0.95,3.53,1.4,5.64,1.4c6.89,0,15.9-4.91,25.02-13.43c9.12,8.47,18.13,13.33,25.02,13.33 c2.1,0,4.01-0.45,5.66-1.4c7.04-4.06,8.62-16.71,4.98-32.59C112.74,70.56,122.88,62.84,122.88,54.73L122.88,54.73z M72.86,54.73 c0-6.32-5.12-11.45-11.45-11.45c-6.32,0-11.45,5.12-11.45,11.45s5.12,11.45,11.45,11.45C67.74,66.17,72.86,61.05,72.86,54.73 L72.86,54.73z M36.34,0.1L36.34,0.1L36.34,0.1L36.34,0.1z M90.27,38.02c-0.93,3.23-2.08,6.56-3.38,9.89c-1.03-2-2.1-4.01-3.28-6.01 c-1.15-2-2.38-3.96-3.61-5.86C83.56,36.57,86.99,37.22,90.27,38.02L90.27,38.02z M78.8,64.7c-1.95,3.38-3.96,6.59-6.04,9.57 c-3.73,0.33-7.51,0.5-11.32,0.5c-3.78,0-7.56-0.18-11.27-0.48c-2.08-2.98-4.11-6.16-6.06-9.52c-1.9-3.28-3.63-6.61-5.21-9.97 c1.55-3.36,3.31-6.71,5.18-9.99c1.95-3.38,3.96-6.59,6.04-9.57c3.73-0.33,7.51-0.5,11.32-0.5c3.78,0,7.56,0.18,11.27,0.48 c2.08,2.98,4.11,6.16,6.06,9.52c1.9,3.28,3.63,6.61,5.21,9.97C82.4,58.06,80.68,61.41,78.8,64.7L78.8,64.7z M86.89,61.44 c1.35,3.36,2.5,6.71,3.46,9.97c-3.28,0.8-6.74,1.48-10.32,2c1.23-1.93,2.45-3.91,3.61-5.94C84.78,65.47,85.86,63.44,86.89,61.44 L86.89,61.44z M61.49,88.16c-2.33-2.4-4.66-5.08-6.96-8.01c2.25,0.1,4.56,0.18,6.89,0.18c2.35,0,4.68-0.05,6.96-0.18 C66.12,83.08,63.79,85.76,61.49,88.16L61.49,88.16z M42.86,73.41c-3.56-0.53-6.99-1.18-10.27-1.98c0.93-3.23,2.08-6.56,3.38-9.89 c1.03,2,2.1,4.01,3.28,6.01C40.43,69.56,41.63,71.51,42.86,73.41L42.86,73.41z M61.36,21.29c2.33,2.4,4.66,5.08,6.96,8.01 c-2.25-0.1-4.56-0.18-6.89-0.18c-2.35,0-4.68,0.05-6.96,0.18C56.73,26.37,59.06,23.69,61.36,21.29L61.36,21.29z M42.83,36.04 c-1.23,1.93-2.45,3.91-3.61,5.94c-1.15,2-2.23,4.01-3.26,6.01c-1.35-3.36-2.5-6.71-3.46-9.97C35.79,37.24,39.25,36.57,42.83,36.04 L42.83,36.04z M20.16,67.4c-8.87-3.78-14.6-8.74-14.6-12.67c0-3.93,5.74-8.92,14.6-12.67c2.15-0.93,4.51-1.75,6.94-2.53 c1.43,4.91,3.31,10.02,5.64,15.25c-2.3,5.21-4.16,10.29-5.56,15.18C24.7,69.18,22.34,68.33,20.16,67.4L20.16,67.4z M33.64,103.19 c-3.41-1.95-4.88-9.39-3.73-18.96c0.28-2.35,0.73-4.83,1.28-7.36c4.91,1.2,10.27,2.13,15.9,2.73c3.38,4.63,6.89,8.84,10.42,12.52 c-8.17,7.59-15.83,11.75-21.04,11.75C35.34,103.84,34.39,103.62,33.64,103.19L33.64,103.19z M93.05,84.11 c1.18,9.57-0.28,17.01-3.66,18.99c-0.75,0.45-1.73,0.65-2.88,0.65c-5.18,0-12.87-4.13-21.04-11.67c3.51-3.68,7.01-7.86,10.34-12.5 c5.66-0.6,11.02-1.53,15.93-2.76C92.32,79.35,92.77,81.78,93.05,84.11L93.05,84.11z M102.69,67.4c-2.15,0.93-4.51,1.75-6.94,2.53 c-1.43-4.91-3.31-10.02-5.64-15.25c2.3-5.21,4.16-10.29,5.56-15.18c2.48,0.78,4.83,1.63,7.04,2.55c8.87,3.78,14.6,8.74,14.6,12.67 C117.29,58.66,111.56,63.64,102.69,67.4L102.69,67.4z"
    />
  </symbol>
  <symbol viewBox="0 0 48 48" id="javascript-svg">
    <path
      d="M6.8 6.8v34.4h34.4V6.8Zm18.73 25.79c0 4.23-2.05 5.64-5.09 5.64a7.65 7.65 0 0 1-2.34-.37l.34-2.26a5.19 5.19 0 0 0 1.72.28c1.6 0 2.57-.72 2.57-3.38v-9.84h2.8Zm6.52 5.62a9 9 0 0 1-4.14-1l.62-2.32a7.76 7.76 0 0 0 3.7 1C34 35.9 35 35.06 35 33.81s-.76-1.81-2.7-2.54c-2.53-.9-4.14-2.26-4.14-4.45 0-2.51 2.09-4.4 5.42-4.4a8.06 8.06 0 0 1 3.67.76l-.67 2.25a6.63 6.63 0 0 0-3.06-.72c-1.78 0-2.53.94-2.53 1.84 0 1.18.89 1.73 2.93 2.51 2.66 1 3.94 2.35 3.94 4.55 0 2.47-1.86 4.6-5.81 4.6Z"
    ></path>
  </symbol>
  <symbol viewBox="0 0 48 48" id="gitbranch-svg">
    <path
      d="M37.1 15.14a3.39 3.39 0 1 0-4.32 3.23c-.33 5.11-6.63 5.53-8.6 5.53a10.42 10.42 0 0 0-8.7 4.81V15.85a3.39 3.39 0 1 0-1.65 0v16a.41.41 0 0 1 0 .09v1.83a3.39 3.39 0 1 0 1.65 0v-1.31c.09-.28 2.29-6.76 8.66-6.76 4.92 0 10.15-1.94 10.41-7.32a3.39 3.39 0 0 0 2.55-3.24Zm-24.17-2.56a1.73 1.73 0 1 1 1.73 1.73 1.72 1.72 0 0 1-1.73-1.73ZM16.38 37a1.73 1.73 0 1 1-1.72-1.72A1.73 1.73 0 0 1 16.38 37Zm17.33-20.14a1.73 1.73 0 1 1 1.73-1.72 1.72 1.72 0 0 1-1.73 1.72Z"
    ></path>
  </symbol>
  <symbol
    id="learn-libs-svg"
    fill-rule="evenodd"
    clip-rule="evenodd"
    image-rendering="optimizeQuality"
    shape-rendering="geometricPrecision"
    text-rendering="geometricPrecision"
    viewBox="0 0 1707 1707"
  >
    <path
      d="M1654 1415l-1601 0c-29,0 -53,-23 -53,-53l0 -130 1707 0 0 130c0,30 -24,53 -53,53zm-392 -547l-817 0c-29,0 -53,-24 -53,-53l0 -668c0,-29 24,-53 53,-53l817 0c29,0 53,24 53,53l0 668c0,29 -24,53 -53,53zm-409 -246c-78,0 -141,-63 -141,-141 0,-78 63,-142 141,-142 78,0 142,64 142,142 0,78 -64,141 -142,141zm-38 109c-4,0 -7,-1 -11,-2l-65 -23c-18,-6 -27,-26 -21,-44l8 -23c-5,-4 -10,-8 -15,-12l-21 10c-5,3 -10,4 -16,4 -13,0 -25,-8 -31,-20l-30 -61c-4,-9 -4,-18 -1,-27 3,-9 9,-16 17,-20l22 -10c-1,-7 -1,-13 -1,-19l-23 -8c-18,-7 -28,-26 -22,-45l23 -64c5,-14 18,-24 33,-24 3,0 7,1 11,2l23 8c4,-5 8,-10 13,-14l-11 -22c-4,-8 -5,-18 -2,-27 3,-8 10,-15 18,-19l61 -30c5,-3 10,-4 16,-4 13,0 25,8 31,20l11 21c6,0 12,-1 19,-1l7 -23c5,-14 19,-23 33,-23 4,0 8,1 12,2l64 22c9,3 16,9 20,18 4,8 5,18 2,26l-8 23c5,4 10,9 14,13l22 -11c5,-2 10,-3 15,-3 13,0 26,7 32,19l30 62c8,17 1,38 -17,46l-21 11c0,6 1,13 1,19l23 8c9,3 16,9 20,18 4,8 4,17 1,26l-22 65c-5,14 -18,23 -33,23 -4,0 -8,0 -11,-2l-23 -8c-4,5 -8,10 -13,15l11 21c4,9 4,18 1,27 -3,9 -9,16 -17,20l-62 30c-5,2 -10,3 -15,3 -13,0 -25,-7 -31,-19l-11 -22c-6,1 -13,1 -19,1l-8 23c-5,14 -18,24 -33,24zm-100 -141c5,0 9,2 12,5 9,9 18,17 28,25 6,4 9,12 6,19l-12 34c0,1 0,2 1,2l65 22c0,0 0,0 0,0 1,0 1,0 2,-1l12 -34c2,-7 9,-12 16,-11 13,0 25,0 37,-3 7,-1 15,3 18,10l16 32c0,1 1,1 1,1 0,0 0,0 1,0l61 -30c1,0 1,0 1,-1 0,0 0,-1 0,-1l-16 -33c-3,-6 -2,-14 4,-19 9,-8 17,-18 24,-28 4,-6 12,-8 19,-6l35 12c0,0 0,0 0,0 0,0 1,0 1,-1l23 -65c0,0 0,0 0,-1 0,0 -1,0 -1,-1l-35 -11c-7,-3 -11,-10 -11,-17 1,-12 0,-25 -2,-37 -1,-7 2,-14 9,-18l33 -16c1,0 1,-1 1,-2l-30 -61c-1,-1 -2,-1 -2,-1 0,0 0,0 0,0l-33 16c-7,3 -15,2 -20,-4 -8,-9 -17,-17 -27,-24 -6,-4 -9,-12 -6,-19l11 -35c1,0 0,0 0,-1 0,0 0,0 -1,0l-64 -23c0,0 0,0 -1,0 0,0 -1,0 -1,1l-12 35c-2,7 -9,11 -16,11 -13,-1 -25,0 -37,2 -8,1 -15,-2 -18,-9l-16 -33c0,-1 -1,-1 -1,-1 -1,0 -1,0 -1,1l-61 30c-1,0 -1,0 -1,0 0,1 0,1 0,1l16 33c3,7 1,15 -4,20 -9,8 -17,17 -24,27 -5,6 -13,9 -20,7l-34 -12c0,0 0,0 0,0 -1,0 -2,0 -2,1l-22 64c0,1 0,2 1,2l34 12c7,2 12,9 11,17 0,12 1,24 3,36 1,8 -3,15 -9,18l-33 16c-1,0 -1,1 -1,1 0,0 0,1 0,1l30 62c0,0 1,0 1,0 1,0 1,0 1,0l33 -16c2,-1 5,-1 7,-1zm138 -218c-59,0 -108,49 -108,109 0,59 49,108 108,108 60,0 109,-49 109,-108 0,-60 -49,-109 -109,-109zm360 1241l-195 0 -329 0 -196 0c-9,0 -16,-8 -16,-17 0,-9 7,-16 16,-16l179 0 0 -131 363 0 0 131 178 0c10,0 17,7 17,16 0,9 -7,17 -17,17zm-798 -257c-28,0 -50,-22 -50,-50 0,-27 22,-50 50,-50 27,0 50,23 50,50 0,28 -23,50 -50,50zm0 -67c-10,0 -17,8 -17,17 0,10 7,17 17,17 9,0 17,-7 17,-17 0,-9 -8,-17 -17,-17zm-118 67c-28,0 -50,-22 -50,-50 0,-27 22,-50 50,-50 27,0 50,23 50,50 0,28 -23,50 -50,50zm0 -67c-9,0 -17,8 -17,17 0,10 8,17 17,17 9,0 17,-7 17,-17 0,-9 -8,-17 -17,-17zm-118 67c-28,0 -50,-22 -50,-50 0,-27 22,-50 50,-50 28,0 50,23 50,50 0,28 -22,50 -50,50zm0 -67c-9,0 -17,8 -17,17 0,10 8,17 17,17 9,0 17,-7 17,-17 0,-9 -8,-17 -17,-17zm-179 -91l0 -754 359 0 0 371c0,47 38,86 86,86l817 0c47,0 86,-39 86,-86l0 -371 359 0 0 754 -1707 0zm0 -787l0 -81c0,-30 24,-53 53,-53l306 0 0 134 -359 0zm1348 0l0 -134 306 0c29,0 53,23 53,53l0 81 -359 0z"
    ></path>
  </symbol>
  <symbol
    id="learn-js-svg"
    fill-rule="evenodd"
    clip-rule="evenodd"
    image-rendering="optimizeQuality"
    shape-rendering="geometricPrecision"
    text-rendering="geometricPrecision"
    viewBox="0 0 1707 1707"
  >
    <path
      d="M847 1008c-11,0 -22,-2 -32,-8l-779 -417c-22,-12 -36,-34 -36,-60 0,-26 14,-48 36,-60l785 -421c19,-11 45,-11 65,0l774 420c22,13 36,35 35,61 0,25 -13,48 -36,60l-779 417c-10,6 -21,8 -33,8zm12 665c-11,0 -23,-3 -33,-9l-779 -417c-22,-12 -36,-34 -36,-60 0,-26 14,-48 36,-60l159 -86 599 321c15,8 31,12 48,12 17,0 33,-4 48,-12l606 -324 164 89c22,12 36,34 36,60 0,26 -14,48 -37,60l-779 417c-10,6 -21,9 -32,9zm-6 -332c-11,0 -22,-3 -32,-9l-779 -417c-23,-12 -36,-34 -36,-60 0,-26 13,-48 36,-60l159 -86 598 321c15,8 32,12 48,12 17,0 34,-4 49,-12l605 -325 164 89c23,13 36,35 36,61 0,25 -14,48 -36,60l-780 417c-10,6 -21,9 -32,9zm-5 -667l0 0c-85,0 -153,-69 -153,-153 0,-84 68,-153 153,-153 84,0 153,69 153,153 0,84 -69,153 -153,153zm-42 118c-4,0 -8,-1 -12,-2l-70 -24c-19,-7 -29,-28 -23,-47l9 -26c-5,-4 -11,-9 -17,-15l-24 12c-5,3 -11,4 -16,4 -14,0 -27,-8 -33,-21l-33 -67c-8,-18 -1,-39 17,-48l25 -12c-1,-8 -1,-15 -1,-23l-26 -9c-19,-6 -30,-27 -23,-46l24 -71c5,-14 19,-24 35,-24 4,0 8,1 12,2l26 9c4,-6 9,-12 15,-17l-12 -25c-5,-9 -5,-18 -2,-28 3,-9 10,-16 18,-21l67 -32c5,-3 11,-4 16,-4 14,0 27,8 33,21l12 24c8,0 15,-1 23,-1l9 -26c5,-15 19,-25 34,-25 4,0 8,1 12,2l70 25c19,6 30,27 23,46l-9 26c6,5 12,10 17,15l25 -12c5,-2 10,-4 16,-4 14,0 26,8 32,21l33 67c4,9 5,18 2,28 -3,9 -10,16 -19,21l-24 12c0,7 1,15 1,22l26 9c9,3 16,10 21,19 4,8 5,18 1,27l-24 71c-5,15 -19,24 -34,24 -4,0 -8,0 -12,-2l-26 -9c-5,6 -10,12 -15,17l12 25c9,18 1,40 -17,49l-67 32c-5,3 -10,4 -16,4 -14,0 -27,-8 -33,-20l-12 -25c-7,1 -15,1 -22,1l-9 26c-5,15 -19,25 -35,25zm-109 -151c5,0 9,2 12,6 9,10 20,19 31,27 6,4 8,12 6,19l-13 37c0,1 0,2 0,2 0,1 1,2 2,2l70 24c2,1 4,0 4,-2l13 -37c3,-7 9,-12 17,-11 13,0 27,0 40,-3 7,-1 15,3 18,9l17 36c1,1 2,2 3,2 1,0 1,0 1,-1l67 -32c2,-1 3,-3 2,-4l-17 -36c-4,-7 -2,-15 3,-20 10,-9 19,-19 27,-30 4,-6 12,-8 19,-6l38 13c1,0 3,0 4,-2l24 -70c0,-1 0,-2 0,-3 0,0 -1,-1 -2,-1l-37 -13c-7,-3 -12,-9 -12,-17 1,-13 0,-27 -2,-40 -1,-8 2,-15 9,-18l36 -17c1,-1 1,-2 1,-2 0,-1 1,-2 0,-3l-33 -67c0,-1 -1,-1 -2,-1 -1,0 -1,0 -2,0l-35 17c-7,4 -15,2 -20,-3 -9,-10 -19,-19 -30,-27 -6,-5 -9,-12 -6,-19l13 -38c0,-1 -1,-3 -2,-4l-71 -24c-1,-1 -3,0 -4,2l-13 37c-2,7 -9,12 -16,12 -14,-1 -27,0 -41,2 -7,1 -14,-2 -18,-9l-17 -36c0,-1 -2,-2 -3,-2 0,0 -1,1 -1,1l-67 32c-1,1 -1,2 -2,2 0,1 0,2 1,3l17 35c3,7 2,15 -4,20 -10,9 -19,19 -27,30 -4,6 -12,9 -19,6l-37 -13c-2,0 -4,0 -4,2l-24 71c-1,1 0,3 1,4l38 13c7,2 12,9 11,16 -1,14 0,27 3,41 1,7 -3,14 -10,17l-35 18c-2,1 -2,2 -2,4l33 67c1,1 2,2 3,2 0,0 1,0 1,-1l36 -17c2,-1 5,-2 7,-2zm151 -239c-66,0 -120,53 -120,119 0,66 54,120 120,120 66,0 119,-54 119,-120 0,-66 -53,-119 -119,-119z"
    ></path>
  </symbol>
  <symbol id="search-svg" viewBox="0 0 50 50">
    <path
      d="M 21 3 C 11.601563 3 4 10.601563 4 20 C 4 29.398438 11.601563 37 21 37 C 24.355469 37 27.460938 36.015625 30.09375 34.34375 L 42.375 46.625 L 46.625 42.375 L 34.5 30.28125 C 36.679688 27.421875 38 23.878906 38 20 C 38 10.601563 30.398438 3 21 3 Z M 21 7 C 28.199219 7 34 12.800781 34 20 C 34 27.199219 28.199219 33 21 33 C 13.800781 33 8 27.199219 8 20 C 8 12.800781 13.800781 7 21 7 Z"
    />
  </symbol>
  <symbol id="html-svg" enable-background="new 0 0 24 24" viewBox="0 0 24 24">
    <path d="M4.136 3.012h15.729l-1.431 16.15-6.451 1.826-6.414-1.826-1.433-16.15zm5.266 7.302-.173-2.035 7.533.002.173-1.963-9.87-.002.522 5.998h6.835l-.243 2.566-2.179.602-2.214-.605-.141-1.58H7.691l.247 3.123L12 17.506l4.028-1.08.558-6.111H9.402v-.001z"></path>
  </symbol>
  <symbol id="open-svg" viewBox="0 0 122.6 122.88" fill="#fff">
<g><path d="M110.6,72.58c0-3.19,2.59-5.78,5.78-5.78c3.19,0,5.78,2.59,5.78,5.78v33.19c0,4.71-1.92,8.99-5.02,12.09 c-3.1,3.1-7.38,5.02-12.09,5.02H17.11c-4.71,0-8.99-1.92-12.09-5.02c-3.1-3.1-5.02-7.38-5.02-12.09V17.19 C0,12.48,1.92,8.2,5.02,5.1C8.12,2,12.4,0.08,17.11,0.08h32.98c3.19,0,5.78,2.59,5.78,5.78c0,3.19-2.59,5.78-5.78,5.78H17.11 c-1.52,0-2.9,0.63-3.91,1.63c-1.01,1.01-1.63,2.39-1.63,3.91v88.58c0,1.52,0.63,2.9,1.63,3.91c1.01,1.01,2.39,1.63,3.91,1.63h87.95 c1.52,0,2.9-0.63,3.91-1.63s1.63-2.39,1.63-3.91V72.58L110.6,72.58z M112.42,17.46L54.01,76.6c-2.23,2.27-5.89,2.3-8.16,0.07 c-2.27-2.23-2.3-5.89-0.07-8.16l56.16-56.87H78.56c-3.19,0-5.78-2.59-5.78-5.78c0-3.19,2.59-5.78,5.78-5.78h26.5 c5.12,0,11.72-0.87,15.65,3.1c2.48,2.51,1.93,22.52,1.61,34.11c-0.08,3-0.15,5.29-0.15,6.93c0,3.19-2.59,5.78-5.78,5.78 c-3.19,0-5.78-2.59-5.78-5.78c0-0.31,0.08-3.32,0.19-7.24C110.96,30.94,111.93,22.94,112.42,17.46L112.42,17.46z"/></g>
  </symbol>
</svg>
